#!OML:ASF G:\JayActor3\Patient Classification 1\Patient 1\Session 2\male.ASF
:FULLY-SPECIFIED
:DEGREES
824
root -41.3742 16.2567 -3.95331 549.148 73.5172 -540.229
lowerback 4.84738 1.0864 1.98142
upperback 3.14893 1.59729 -0.263279
thorax 0.580055 0.862007 -1.4471
lowerneck -10.4514 -4.18667 -4.71897
upperneck 8.72967 -6.17006 12.3458
head 4.88495 -2.38632 4.15983
rclavicle 9.93923e-015 -2.78299e-015
rhumerus -29.9701 25.8503 -90.3669
rradius 46.6286
rwrist -4.39621
rhand -18.9071 3.11436
rfingers 7.12502
rthumb 7.39478 -26.7364
lclavicle 9.93923e-015 -2.78299e-015
lhumerus -37.4434 -18.5848 96.9593
lradius 68.0603
lwrist 15.0659
lhand -28.066 22.036
lfingers 7.12502
lthumb -1.44963 52.0108
rfemur -9.18661 3.03386 22.9343
rtibia 32.872
rfoot -36.7953 -4.31423
rtoes 18.2354
lfemur -37.1162 5.91823 -18.8647
ltibia 59.3755
lfoot -16.854 -11.8365
ltoes -25.1313
825
root -41.4041 16.2596 -3.9657 549.409 74.8388 -540.227
lowerback 4.82137 1.08517 1.7485
upperback 3.21598 1.58666 -0.298817
thorax 0.657414 0.855225 -1.35105
lowerneck -10.7276 -3.99453 -4.37375
upperneck 8.42189 -5.90263 12.0905
head 4.79558 -2.26276 4.03925
rclavicle -6.44559e-014 2.76311e-014
rhumerus -30.0958 25.7733 -90.0218
rradius 46.7455
rwrist -4.39099
rhand -18.8804 3.13979
rfingers 7.12502
rthumb 7.42056 -26.7101
lclavicle -6.44559e-014 2.76311e-014
lhumerus -38.0617 -17.5618 96.1513
lradius 66.8715
lwrist 14.9623
lhand -28.7384 22.5473
lfingers 7.12502
lthumb -2.09911 52.5167
rfemur -9.9278 3.37995 22.5279
rtibia 33.3284
rfoot -36.6046 -3.66237
rtoes 17.5751
lfemur -36.3089 5.21448 -19.0369
ltibia 58.3492
lfoot -17.1442 -11.9985
ltoes -24.8073
826
root -41.4304 16.2605 -3.97792 549.929 76.0071 -539.952
lowerback 4.77118 1.03223 1.56993
upperback 3.28948 1.50939 -0.311989
thorax 0.753618 0.815805 -1.2593
lowerneck -10.978 -3.80637 -4.06711
upperneck 8.10273 -5.6423 11.9046
head 4.70388 -2.14044 3.94712
rclavicle -2.31584e-014 2.08724e-014
rhumerus -30.1573 25.6895 -89.6684
rradius 46.8119
rwrist -4.36806
rhand -18.8094 3.16068
rfingers 7.12502
rthumb 7.48912 -26.6867
lclavicle -2.31584e-014 2.08724e-014
lhumerus -38.7412 -16.5668 95.347
lradius 65.8168
lwrist 14.9619
lhand -29.2968 23.2201
lfingers 7.12502
lthumb -2.6383 53.1835
rfemur -10.6249 3.67911 22.2312
rtibia 33.7476
rfoot -36.4948 -3.07219
rtoes 16.8634
lfemur -35.5397 4.50028 -19.1876
ltibia 57.309
lfoot -17.4714 -11.9531
ltoes -24.7666
827
root -41.4534 16.2578 -3.98906 550.813 77.0123 -539.292
lowerback 4.70707 0.935284 1.44931
upperback 3.36191 1.37578 -0.296547
thorax 0.855928 0.748675 -1.16847
lowerneck -11.1592 -3.63445 -3.81759
upperneck 7.76272 -5.40376 11.813
head 4.60175 -2.02721 3.89336
rclavicle 2.51711e-014 -7.35503e-015
rhumerus -30.1882 25.5641 -89.3106
rradius 46.835
rwrist -4.32137
rhand -18.7486 3.19982
rfingers 7.12502
rthumb 7.54778 -26.6455
lclavicle 2.51711e-014 -7.35503e-015
lhumerus -39.4941 -15.6503 94.5729
lradius 64.8965
lwrist 15.0443
lhand -29.701 23.9249
lfingers 7.12502
lthumb -3.02874 53.8831
rfemur -11.263 3.90832 22.0624
rtibia 34.1259
rfoot -36.4614 -2.54805
rtoes 16.0934
lfemur -34.8064 3.7972 -19.2952
ltibia 56.2746
lfoot -17.8515 -11.6683
ltoes -24.8876
828
root -41.4736 16.252 -3.99885 552.073 77.8719 -538.25
lowerback 4.62523 0.80546 1.36405
upperback 3.42971 1.19939 -0.254482
thorax 0.962953 0.660224 -1.06872
lowerneck -11.3264 -3.47388 -3.58729
upperneck 7.44839 -5.18377 11.7573
head 4.50901 -1.92079 3.85283
rclavicle 3.44146e-014 -2.99171e-014
rhumerus -30.2101 25.3857 -88.9452
rradius 46.8316
rwrist -4.24413
rhand -18.6999 3.24725
rfingers 7.12502
rthumb 7.59479 -26.5964
lclavicle 3.44146e-014 -2.99171e-014
lhumerus -40.3028 -14.8429 93.8484
lradius 64.1016
lwrist 15.1664
lhand -29.9289 24.6383
lfingers 7.12502
lthumb -3.24878 54.5933
rfemur -11.8537 4.10006 22.0034
rtibia 34.4663
rfoot -36.5025 -2.10995
rtoes 15.2768
lfemur -34.1193 3.14906 -19.3774
ltibia 55.2466
lfoot -18.3298 -11.0783
ltoes -25.1262
829
root -41.4901 16.2444 -4.00708 553.584 78.6042 -536.942
lowerback 4.52756 0.654709 1.27463
upperback 3.49288 0.994726 -0.193558
thorax 1.07369 0.557108 -0.946706
lowerneck -11.4638 -3.33216 -3.37566
upperneck 7.16341 -4.99209 11.7291
head 4.4244 -1.82702 3.82216
rclavicle 1.78285e-015 -9.83984e-015
rhumerus -30.2535 25.149 -88.5765
rradius 46.8196
rwrist -4.14283
rhand -18.6685 3.28963
rfingers 7.12502
rthumb 7.62513 -26.5529
lclavicle 1.78285e-015 -9.83984e-015
lhumerus -41.1566 -14.1799 93.2
lradius 63.4202
lwrist 15.3096
lhand -29.9953 25.3376
lfingers 7.12502
lthumb -3.31292 55.2916
rfemur -12.381 4.27612 22.0173
rtibia 34.768
rfoot -36.6115 -1.76367
rtoes 14.4199
lfemur -33.4517 2.57484 -19.4644
ltibia 54.2152
lfoot -18.9442 -10.0483
ltoes -25.2658
830
root -41.5026 16.2359 -4.01446 555.219 79.2623 -535.5
lowerback 4.41742 0.501925 1.15927
upperback 3.54486 0.786141 -0.13387
thorax 1.18056 0.451103 -0.811986
lowerneck -11.5582 -3.20756 -3.16995
upperneck 6.90442 -4.82683 11.7185
head 4.34371 -1.74577 3.79633
rclavicle -1.04362e-015 6.16232e-015
rhumerus -30.3457 24.8405 -88.2189
rradius 46.8215
rwrist -4.04771
rhand -18.6456 3.30993
rfingers 7.12502
rthumb 7.6472 -26.5318
lclavicle -1.04362e-015 6.16232e-015
lhumerus -42.0448 -13.6892 92.6371
lradius 62.841
lwrist 15.4712
lhand -29.9084 25.9913
lfingers 7.12502
lthumb -3.22904 55.9466
rfemur -12.8535 4.43926 22.0515
rtibia 35.0307
rfoot -36.7487 -1.4618
rtoes 13.5341
lfemur -32.7891 2.11361 -19.5946
ltibia 53.1613
lfoot -19.6986 -8.46091
ltoes -25.2852
831
root -41.5106 16.2279 -4.02176 556.892 79.892 -534.003
lowerback 4.29844 0.359908 0.994057
upperback 3.59398 0.590405 -0.0768374
thorax 1.29052 0.350298 -0.653182
lowerneck -11.6378 -3.0854 -2.93093
upperneck 6.68396 -4.67032 11.6676
head 4.27137 -1.66966 3.75185
rclavicle -4.72114e-016 -5.41688e-015
rhumerus -30.4931 24.4792 -87.8616
rradius 46.8567
rwrist -3.98568
rhand -18.6184 3.30174
rfingers 7.12502
rthumb 7.67344 -26.539
lclavicle -4.72114e-016 -5.41688e-015
lhumerus -42.9345 -13.3568 92.1771
lradius 62.3472
lwrist 15.6459
lhand -29.675 26.5977
lfingers 7.12502
lthumb -3.00362 56.5563
rfemur -13.2642 4.58413 22.0703
rtibia 35.2498
rfoot -36.8795 -1.15139
rtoes 12.6116
lfemur -32.1068 1.79163 -19.7855
ltibia 52.0682
lfoot -20.5573 -6.31132
ltoes -25.1075
832
root -41.5139 16.2208 -4.02928 558.544 80.5153 -532.505
lowerback 4.18784 0.233609 0.777475
upperback 3.63438 0.414505 -0.0339452
thorax 1.38847 0.258065 -0.481568
lowerneck -11.7076 -2.96935 -2.68572
upperneck 6.51092 -4.52658 11.5997
head 4.21258 -1.59956 3.70025
rclavicle 3.8266e-015 -1.37161e-014
rhumerus -30.7066 24.058 -87.5127
rradius 46.9439
rwrist -4.02326
rhand -18.5282 3.25179
rfingers 7.12502
rthumb 7.76051 -26.5858
lclavicle 3.8266e-015 -1.37161e-014
lhumerus -43.812 -13.1876 91.8216
lradius 61.9266
lwrist 15.8534
lhand -29.324 27.1134
lfingers 7.12502
lthumb -2.66465 57.0765
rfemur -13.6106 4.70809 22.0533
rtibia 35.4252
rfoot -36.9886 -0.798923
rtoes 11.6637
lfemur -31.3974 1.60296 -20.0388
ltibia 50.9286
lfoot -21.4203 -3.80344
ltoes -24.4722
833
root -41.5125 16.2149 -4.03682 560.186 81.1327 -530.995
lowerback 4.09193 0.125714 0.511958
upperback 3.65724 0.262081 -0.00479845
thorax 1.46192 0.176095 -0.298052
lowerneck -11.7612 -2.8567 -2.42512
upperneck 6.39023 -4.39301 11.504
head 4.16707 -1.5346 3.63689
rclavicle 1.33683e-014 -2.5842e-015
rhumerus -31.0081 23.5891 -87.1833
rradius 47.0768
rwrist -4.13094
rhand -18.5007 3.19711
rfingers 7.12502
rthumb 7.78709 -26.6395
lclavicle 1.33683e-014 -2.5842e-015
lhumerus -44.6755 -13.1732 91.5764
lradius 61.5769
lwrist 16.1035
lhand -28.8834 27.5163
lfingers 7.12502
lthumb -2.23911 57.4843
rfemur -13.8934 4.81086 22.0029
rtibia 35.554
rfoot -37.0771 -0.401308
rtoes 10.6608
lfemur -30.6712 1.53724 -20.3376
ltibia 49.75
lfoot -22.2321 -1.26629
ltoes -23.1614
834
root -41.5073 16.21 -4.04451 561.933 81.7418 -529.361
lowerback 4.01338 0.0337848 0.219469
upperback 3.66766 0.130679 0.0140934
thorax 1.51462 0.103783 -0.111026
lowerneck -11.838 -2.75468 -2.18079
upperneck 6.33936 -4.27864 11.4028
head 4.1486 -1.47685 3.57315
rclavicle 1.19271e-015 -2.10712e-014
rhumerus -31.3815 23.0943 -86.8745
rradius 47.2413
rwrist -4.28327
rhand -18.5313 3.13819
rfingers 7.12502
rthumb 7.75752 -26.6995
lclavicle 1.19271e-015 -2.10712e-014
lhumerus -45.4947 -13.2878 91.4317
lradius 61.2869
lwrist 16.4042
lhand -28.3984 27.7921
lfingers 7.12502
lthumb -1.77069 57.7645
rfemur -14.1174 4.89937 21.9378
rtibia 35.6385
rfoot -37.1499 0.0341421
rtoes 9.58994
lfemur -29.9448 1.57165 -20.6441
ltibia 48.5603
lfoot -23.0191 1.08314
ltoes -21.3191
835
root -41.4989 16.2059 -4.05207 563.861 82.3146 -527.531
lowerback 3.95448 -0.0478269 -0.0799619
upperback 3.66011 0.0130094 0.0242263
thorax 1.53937 0.0379598 0.0702135
lowerneck -11.9189 -2.66847 -1.97444
upperneck 6.34371 -4.18802 11.3264
head 4.15103 -1.42834 3.52181
rclavicle 8.84592e-015 5.1684e-015
rhumerus -31.8306 22.5748 -86.5977
rradius 47.4159
rwrist -4.44193
rhand -18.6678 3.13461
rfingers 7.12502
rthumb 7.62583 -26.7079
lclavicle 8.84592e-015 5.1684e-015
lhumerus -46.2646 -13.5226 91.3799
lradius 61.0505
lwrist 16.7614
lhand -27.9073 27.9702
lfingers 7.12502
lthumb -1.2964 57.946
rfemur -14.2863 4.98379 21.8807
rtibia 35.6811
rfoot -37.2224 0.474314
rtoes 8.45621
lfemur -29.2333 1.65223 -20.9135
ltibia 47.4014
lfoot -23.7897 3.02791
ltoes -19.0009
836
root -41.4886 16.2026 -4.05972 566.085 82.8437 -525.405
lowerback 3.89772 -0.119163 -0.371081
upperback 3.63741 -0.0908246 0.0286523
thorax 1.54858 -0.020888 0.240415
lowerneck -12.0095 -2.59797 -1.81374
upperneck 6.38904 -4.11919 11.2853
head 4.1711 -1.3879 3.48746
rclavicle 2.48481e-015 1.27222e-014
rhumerus -32.3423 22.033 -86.3479
rradius 47.5897
rwrist -4.57682
rhand -18.8496 3.15925
rfingers 7.12502
rthumb 7.45036 -26.6896
lclavicle 2.48481e-015 1.27222e-014
lhumerus -46.9678 -13.8541 91.4103
lradius 60.8621
lwrist 17.1568
lhand -27.4436 28.0294
lfingers 7.12502
lthumb -0.8485 58.0075
rfemur -14.4256 5.07299 21.8431
rtibia 35.6924
rfoot -37.2948 0.906758
rtoes 7.26837
lfemur -28.5682 1.7312 -21.1075
ltibia 46.323
lfoot -24.5559 4.48618
ltoes -16.5847
837
root -41.4769 16.2003 -4.06712 568.567 83.3032 -523.026
lowerback 3.82379 -0.1919 -0.663753
upperback 3.61499 -0.196195 0.0389164
thorax 1.5689 -0.0806271 0.417325
lowerneck -12.1264 -2.53958 -1.69642
upperneck 6.46217 -4.0655 11.2657
head 4.20655 -1.35302 3.46586
rclavicle 6.4605e-015 -8.74653e-015
rhumerus -32.8802 21.4928 -86.1101
rradius 47.7409
rwrist -4.66374
rhand -19.0324 3.20261
rfingers 7.12502
rthumb 7.27384 -26.6524
lclavicle 6.4605e-015 -8.74653e-015
lhumerus -47.5676 -14.2407 91.5155
lradius 60.7094
lwrist 17.5613
lhand -27.0499 28.0278
lfingers 7.12502
lthumb -0.468298 58.007
rfemur -14.5465 5.17774 21.8329
rtibia 35.6903
rfoot -37.3841 1.29143
rtoes 6.03649
lfemur -27.9724 1.73706 -21.1958
ltibia 45.3687
lfoot -25.2799 5.49039
ltoes -14.3594
838
root -41.4645 16.1986 -4.07398 571.218 83.6931 -520.481
lowerback 3.7461 -0.264651 -0.955514
upperback 3.58279 -0.301347 0.0442552
thorax 1.58244 -0.140217 0.588472
lowerneck -12.2364 -2.4962 -1.62492
upperneck 6.54213 -4.02926 11.2863
head 4.2461 -1.32544 3.46316
rclavicle 1.53064e-014 5.96354e-015
rhumerus -33.4539 20.9223 -85.8976
rradius 47.8694
rwrist -4.72018
rhand -19.1419 3.23158
rfingers 7.12502
rthumb 7.16815 -26.627
lclavicle 1.53064e-014 5.96354e-015
lhumerus -48.0801 -14.6814 91.6799
lradius 60.5885
lwrist 17.9542
lhand -26.7363 27.9834
lfingers 7.12502
lthumb -0.165437 57.963
rfemur -14.6647 5.31404 21.8445
rtibia 35.7014
rfoot -37.4892 1.61038
rtoes 4.78914
lfemur -27.4607 1.66282 -21.1759
ltibia 44.5627
lfoot -25.8995 6.14269
ltoes -12.8032
